<?xml version="1.0" standalone="no"?>
<!DOCTYPE svg PUBLIC "-//W3C//DTD SVG 20010904//EN"
 "http://www.w3.org/TR/2001/REC-SVG-20010904/DTD/svg10.dtd">
<svg version="1.0" xmlns="http://www.w3.org/2000/svg"
 width="50.000000pt" height="50.000000pt" viewBox="0 0 50.000000 50.000000"
 preserveAspectRatio="xMidYMid meet">

<g transform="translate(0.000000,50.000000) scale(0.100000,-0.100000)"
fill="#000000" stroke="none">
<path d="M344 449 c-6 -11 82 -109 98 -109 5 0 11 7 15 16 4 10 -9 31 -38 60
-44 45 -62 53 -75 33z"/>
<path d="M410 452 c0 -14 39 -46 47 -38 4 4 2 15 -3 24 -12 19 -44 29 -44 14z"/>
<path d="M267 443 c-17 -17 -2 -43 65 -110 72 -72 103 -88 115 -57 4 11 -19
40 -73 95 -75 76 -92 87 -107 72z"/>
<path d="M230 265 c-61 -62 -63 -66 -47 -82 16 -17 21 -14 84 49 45 45 64 71
60 82 -11 28 -31 18 -97 -49z"/>
<path d="M53 224 c-7 -19 145 -176 167 -172 36 7 21 42 -51 114 -73 73 -104
89 -116 58z"/>
<path d="M43 144 c-6 -17 72 -104 93 -104 31 0 23 26 -22 71 -52 53 -61 57
-71 33z"/>
<path d="M42 74 c4 -20 34 -41 44 -31 8 8 -24 47 -38 47 -5 0 -8 -7 -6 -16z"/>
</g>
</svg>
